<svg width="270" height="68" viewBox="0 0 270 68" fill="none" xmlns="http://www.w3.org/2000/svg">
<rect y="56" width="266" height="6" rx="3" fill="url(#paint0_linear_446_101)"/>
<path d="M226 56H238L234.5 62H222L226 56Z" fill="white"/>
<path d="M6.66504 44.2861L6.34766 44.9453C6.34766 45.4173 7.00684 45.873 8.3252 46.3125C9.65983 46.7357 11.1165 46.9473 12.6953 46.9473C14.2904 46.9473 16.04 46.7113 17.9443 46.2393C19.8486 45.7673 21.5007 45.1895 22.9004 44.5059C24.3164 43.8223 25.4801 43.1061 26.3916 42.3574C27.3193 41.6087 27.7832 40.9577 27.7832 40.4043C27.7832 39.7044 26.9694 39.0534 25.3418 38.4512C23.7142 37.849 21.346 37.1898 18.2373 36.4736C15.1449 35.7412 12.8743 34.8216 11.4258 33.7148C9.99349 32.6081 9.27734 31.2653 9.27734 29.6865C9.27734 28.0915 9.84701 26.5697 10.9863 25.1211C12.1257 23.6725 13.6068 22.3867 15.4297 21.2637C17.2689 20.1406 19.2708 19.1396 21.4355 18.2607C25.9115 16.4541 30.0618 15.5508 33.8867 15.5508C35.3516 15.5508 36.6455 15.681 37.7686 15.9414C39.917 16.446 40.9912 17.1133 40.9912 17.9434C40.9912 18.7734 40.918 19.3431 40.7715 19.6523C40.625 19.9453 40.5029 20.1406 40.4053 20.2383C40.3239 20.3359 40.21 20.4336 40.0635 20.5312C39.9333 20.6289 39.8356 20.7021 39.7705 20.751C39.0544 21.3532 37.0931 21.7275 33.8867 21.874C32.7799 21.9229 32.1777 21.9798 32.0801 22.0449C31.9824 22.11 31.8929 22.1426 31.8115 22.1426C31.7464 22.1426 31.665 22.0775 31.5674 21.9473C31.4697 21.8171 31.4209 21.6055 31.4209 21.3125C31.4209 21.0195 31.7383 20.4824 32.373 19.7012C30.3874 19.8151 28.2633 20.2708 26.001 21.0684C23.7549 21.8659 21.8018 22.7692 20.1416 23.7783C18.4814 24.7712 17.098 25.7559 15.9912 26.7324C14.8844 27.6927 14.3311 28.3763 14.3311 28.7832C14.3311 29.1738 14.4531 29.4993 14.6973 29.7598C15.3809 30.4922 17.277 31.2572 20.3857 32.0547C23.6084 32.8848 25.7568 33.5521 26.8311 34.0566C27.9053 34.5612 28.7923 35.0413 29.4922 35.4971C30.2083 35.9528 30.778 36.4167 31.2012 36.8887C32.194 38.028 32.6904 39.1836 32.6904 40.3555C32.6904 41.5273 32.373 42.626 31.7383 43.6514C31.1198 44.6768 30.1758 45.6696 28.9062 46.6299C27.653 47.5902 26.1719 48.4447 24.4629 49.1934C20.7194 50.8698 16.2598 51.708 11.084 51.708C7.30794 51.708 4.89909 50.707 3.85742 48.7051C3.58073 48.2005 3.44238 47.6797 3.44238 47.1426C3.44238 46.5892 3.56445 46.0928 3.80859 45.6533C4.06901 45.2139 4.37826 44.8802 4.73633 44.6523C5.4362 44.2129 5.93262 43.9932 6.22559 43.9932C6.51855 43.9932 6.66504 44.0908 6.66504 44.2861ZM34.9609 51.1465L33.7646 51.0977H33.3252C33.1624 51.0488 32.9915 50.9512 32.8125 50.8047C32.6172 50.6582 32.4707 50.5524 32.373 50.4873C32.2754 50.4222 32.2266 50.3083 32.2266 50.1455C32.2266 49.9665 32.2917 49.6654 32.4219 49.2422C35.5957 42.2598 38.6637 36.6771 41.626 32.4941C41.9515 32.0384 42.4723 31.6966 43.1885 31.4688C43.9209 31.2246 44.6289 31.1025 45.3125 31.1025C45.7194 31.1025 45.9229 31.4199 45.9229 32.0547C45.9229 32.2337 45.8577 32.4779 45.7275 32.7871C45.5973 33.0801 45.2718 33.5684 44.751 34.252C44.2301 34.9355 43.6117 35.7168 42.8955 36.5957C42.1794 37.4746 41.7725 37.9792 41.6748 38.1094C43.9046 35.7982 45.9147 34.0811 47.7051 32.958C49.5117 31.8187 50.8138 31.249 51.6113 31.249C52.4251 31.249 53.0436 31.485 53.4668 31.957C53.9062 32.4128 54.126 32.9092 54.126 33.4463C54.126 33.9671 54.0853 34.4066 54.0039 34.7646C53.9388 35.1064 53.8086 35.4727 53.6133 35.8633C53.418 36.2376 53.2471 36.5632 53.1006 36.8398C52.9704 37.1003 52.7425 37.4502 52.417 37.8896C52.0915 38.3128 51.8636 38.6058 51.7334 38.7686C51.6195 38.9313 51.3672 39.2406 50.9766 39.6963C50.6022 40.152 50.3988 40.4043 50.3662 40.4531C50.8219 39.9974 51.4567 39.3219 52.2705 38.4268C53.0843 37.5316 53.7679 36.7829 54.3213 36.1807C54.891 35.5785 55.599 34.903 56.4453 34.1543C57.2917 33.3893 58.0811 32.7708 58.8135 32.2988C60.5713 31.1921 62.3535 30.6387 64.1602 30.6387C64.7786 30.6387 65.2995 30.834 65.7227 31.2246C66.1458 31.6152 66.3574 32.0872 66.3574 32.6406C66.3574 33.1777 65.6982 34.4798 64.3799 36.5469C63.0615 38.5977 61.7432 40.6647 60.4248 42.748C59.1227 44.8151 58.4717 46.1172 58.4717 46.6543C58.4717 47.403 58.61 47.8506 58.8867 47.9971C59.1634 48.1273 59.4971 48.1761 59.8877 48.1436C60.2783 48.111 60.8236 47.8587 61.5234 47.3867C62.2396 46.9147 62.8743 46.4264 63.4277 45.9219C64.3229 45.1081 65.153 44.3187 65.918 43.5537C66.0807 43.4072 66.2598 43.334 66.4551 43.334C66.7643 43.334 66.9515 43.57 67.0166 44.042C67.0817 44.514 67.1143 45.0023 67.1143 45.5068C67.1143 46.0114 67.0654 46.3613 66.9678 46.5566C66.4958 47.4681 65.4541 48.583 63.8428 49.9014C62.2314 51.2197 60.6852 51.8789 59.2041 51.8789C59.0251 51.8789 58.8949 51.8708 58.8135 51.8545C57.137 51.6917 55.9733 51.236 55.3223 50.4873C54.6875 49.7223 54.3701 48.819 54.3701 47.7773C54.3701 46.7357 54.7201 45.4743 55.4199 43.9932C56.1361 42.512 56.9173 41.1693 57.7637 39.9648C58.61 38.7604 59.3831 37.6781 60.083 36.7178C60.7992 35.7412 61.1572 35.2122 61.1572 35.1309C61.1572 35.0495 61.0921 35.0088 60.9619 35.0088C60.4574 35.0088 59.3343 35.8226 57.5928 37.4502C54.6143 40.2334 52.0426 42.9189 49.8779 45.5068C49.3083 46.1904 47.9574 47.9238 45.8252 50.707C45.5811 51.0326 45.1904 51.1953 44.6533 51.1953C44.1325 51.1953 43.5872 51.0977 43.0176 50.9023C42.4479 50.6908 42.1631 50.4222 42.1631 50.0967C42.1631 49.9339 43.457 47.6553 46.0449 43.2607C48.6328 38.8499 49.9268 36.4492 49.9268 36.0586C49.9268 35.6517 49.6826 35.4482 49.1943 35.4482C48.7223 35.4482 47.7376 36.1644 46.2402 37.5967C42.1224 41.5355 38.9323 45.4499 36.6699 49.3398C36.5234 49.5677 36.2386 49.9258 35.8154 50.4141C35.3923 50.9023 35.1074 51.1465 34.9609 51.1465ZM81.958 32.3965C82.4463 32.3965 82.9427 32.6162 83.4473 33.0557C83.9681 33.4951 84.2285 34.1706 84.2285 35.082C84.2285 35.9772 83.9111 37.1491 83.2764 38.5977C82.6416 40.0299 81.7708 41.4948 80.6641 42.9922C79.5573 44.4733 78.3366 45.873 77.002 47.1914C75.6836 48.4935 74.2513 49.5677 72.7051 50.4141C71.1751 51.2441 69.7835 51.6592 68.5303 51.6592C67.277 51.6592 66.2679 51.2686 65.5029 50.4873C64.7542 49.6898 64.3799 48.5911 64.3799 47.1914C64.3799 45.7754 64.7217 44.2129 65.4053 42.5039C66.1051 40.7949 67.0003 39.2894 68.0908 37.9873C69.1813 36.6689 70.3613 35.4889 71.6309 34.4473C74.2839 32.3151 76.6113 31.249 78.6133 31.249C79.5085 31.249 80.1839 31.4688 80.6396 31.9082C80.8024 32.0547 80.8838 32.1849 80.8838 32.2988V32.4453C81.1117 32.4128 81.4697 32.3965 81.958 32.3965ZM79.4922 35.6436H79.3213C78.7516 35.6436 78.4668 35.2285 78.4668 34.3984C77.2786 34.7891 76.0335 35.4727 74.7314 36.4492C73.4294 37.4258 72.2656 38.5814 71.2402 39.916C69.1569 42.5853 68.099 44.8395 68.0664 46.6787C68.0664 47.5902 68.4001 48.0459 69.0674 48.0459C69.7347 48.0459 70.7275 47.6064 72.0459 46.7275C73.3643 45.8486 74.6663 44.5954 75.9521 42.9678C77.2542 41.3402 78.2227 39.9323 78.8574 38.7441C79.5085 37.5397 79.834 36.7259 79.834 36.3027C79.834 35.8633 79.7201 35.6436 79.4922 35.6436ZM100.269 32.3965C100.757 32.3965 101.253 32.6162 101.758 33.0557C102.279 33.4951 102.539 34.1706 102.539 35.082C102.539 35.9772 102.222 37.1491 101.587 38.5977C100.952 40.0299 100.081 41.4948 98.9746 42.9922C97.8678 44.4733 96.6471 45.873 95.3125 47.1914C93.9941 48.4935 92.5618 49.5677 91.0156 50.4141C89.4857 51.2441 88.0941 51.6592 86.8408 51.6592C85.5876 51.6592 84.5785 51.2686 83.8135 50.4873C83.0648 49.6898 82.6904 48.5911 82.6904 47.1914C82.6904 45.7754 83.0322 44.2129 83.7158 42.5039C84.4157 40.7949 85.3109 39.2894 86.4014 37.9873C87.4919 36.6689 88.6719 35.4889 89.9414 34.4473C92.5944 32.3151 94.9219 31.249 96.9238 31.249C97.819 31.249 98.4945 31.4688 98.9502 31.9082C99.113 32.0547 99.1943 32.1849 99.1943 32.2988V32.4453C99.4222 32.4128 99.7803 32.3965 100.269 32.3965ZM97.8027 35.6436H97.6318C97.0622 35.6436 96.7773 35.2285 96.7773 34.3984C95.5892 34.7891 94.3441 35.4727 93.042 36.4492C91.7399 37.4258 90.5762 38.5814 89.5508 39.916C87.4674 42.5853 86.4095 44.8395 86.377 46.6787C86.377 47.5902 86.7106 48.0459 87.3779 48.0459C88.0452 48.0459 89.0381 47.6064 90.3564 46.7275C91.6748 45.8486 92.9769 44.5954 94.2627 42.9678C95.5648 41.3402 96.5332 39.9323 97.168 38.7441C97.819 37.5397 98.1445 36.7259 98.1445 36.3027C98.1445 35.8633 98.0306 35.6436 97.8027 35.6436ZM118.799 19.5547L119.8 19.7988C119.946 19.7988 120.076 19.8721 120.19 20.0186C120.304 20.165 120.361 20.3034 120.361 20.4336C120.361 20.5638 120.19 20.9137 119.849 21.4834C119.507 22.0531 119.1 22.7041 118.628 23.4365C118.172 24.1527 117.928 24.5433 117.896 24.6084C119.165 24.5107 120.06 24.4619 120.581 24.4619C121.118 24.4619 121.484 24.5026 121.68 24.584C121.875 24.6491 122.095 24.8525 122.339 25.1943C122.599 25.5199 122.835 25.7721 123.047 25.9512C123.258 26.1139 123.364 26.3662 123.364 26.708C123.364 27.0498 123.153 27.3428 122.729 27.5869C122.323 27.8148 121.883 27.9531 121.411 28.002C117.635 28.3763 115.552 28.5716 115.161 28.5879C113.843 30.6061 111.995 33.7555 109.619 38.0361C107.259 42.3005 106.006 44.9697 105.859 46.0439C105.794 46.5322 105.762 46.931 105.762 47.2402C105.762 47.875 106.095 48.1924 106.763 48.1924C107.43 48.1924 108.171 47.9401 108.984 47.4355C109.798 46.9147 110.547 46.3532 111.23 45.751C113.053 44.1234 114.03 43.3096 114.16 43.3096C114.583 43.3096 114.795 44.042 114.795 45.5068C114.795 46.3044 114.429 47.0205 113.696 47.6553C112.052 49.0713 110.669 50.1374 109.546 50.8535C108.423 51.5697 107.3 51.9277 106.177 51.9277C105.933 51.9277 105.705 51.9033 105.493 51.8545C104.191 51.6104 103.231 51.1383 102.612 50.4385C102.01 49.7223 101.709 48.762 101.709 47.5576C101.725 46.3532 102.083 44.8965 102.783 43.1875C103.499 41.4622 104.395 39.6312 105.469 37.6943C107.227 34.5368 108.984 31.5745 110.742 28.8076L109.814 28.9297C107.926 29.1413 106.828 29.2471 106.519 29.2471H106.299C105.827 29.2471 105.371 29.1576 104.932 28.9785C104.492 28.7832 104.272 28.5472 104.272 28.2705C104.272 27.9938 104.386 27.7253 104.614 27.4648C104.858 27.2044 105.005 27.001 105.054 26.8545C105.168 26.4964 105.591 26.0977 106.323 25.6582C107.072 25.2188 107.633 24.9909 108.008 24.9746C108.382 24.9421 108.74 24.9176 109.082 24.9014C109.44 24.8851 109.831 24.8688 110.254 24.8525C110.693 24.8363 111.027 24.82 111.255 24.8037L113.452 24.7061C114.819 22.6553 115.755 21.3369 116.26 20.751C116.781 20.165 117.082 19.8477 117.163 19.7988C117.244 19.7337 117.407 19.7012 117.651 19.7012L118.799 19.5547ZM134.229 43.7979C134.342 44.5465 134.399 45.1406 134.399 45.5801C134.399 46.0033 134.318 46.3776 134.155 46.7031C134.009 47.0124 133.667 47.46 133.13 48.0459C132.609 48.6156 131.982 49.1934 131.25 49.7793C129.46 51.1953 127.629 51.9033 125.757 51.9033C123.071 51.9033 121.729 50.7152 121.729 48.3389C121.729 46.2718 123.527 42.154 127.124 35.9854C127.254 35.7575 127.344 35.5947 127.393 35.4971C126.139 36.376 123.739 38.7767 120.19 42.6992C116.659 46.6055 114.307 49.3724 113.135 51C113.037 51.1465 112.793 51.3092 112.402 51.4883C112.012 51.6673 111.702 51.7568 111.475 51.7568C111.263 51.7568 111.035 51.6836 110.791 51.5371C110.531 51.4069 110.368 51.3418 110.303 51.3418C110.091 51.3418 109.985 51.2686 109.985 51.1221C109.985 50.9919 110.278 50.2513 110.864 48.9004C111.434 47.5332 112.191 45.8405 113.135 43.8223C115.723 38.2559 119.572 31.013 124.683 22.0938C126.473 18.9688 127.873 16.7552 128.882 15.4531C129.598 14.5254 130.802 14.0615 132.495 14.0615C132.853 14.0615 133.057 14.1673 133.105 14.3789C133.154 14.5905 133.179 14.8184 133.179 15.0625C133.179 15.3066 133.13 15.5508 133.032 15.7949L130.42 19.8721C125.244 27.945 121.346 34.6344 118.726 39.9404C121.265 36.848 123.73 34.4635 126.123 32.7871C127.604 31.7292 128.711 31.2002 129.443 31.2002C130.192 31.2002 130.868 31.3223 131.47 31.5664C132.072 31.7943 132.373 32.3558 132.373 33.251C132.373 33.5765 131.844 34.7809 130.786 36.8643C127.612 43.1143 126.025 46.5892 126.025 47.2891C126.025 47.9727 126.31 48.3145 126.88 48.3145C127.71 48.3145 128.988 47.5088 130.713 45.8975C132.015 44.6768 132.837 43.8955 133.179 43.5537C133.374 43.4072 133.553 43.334 133.716 43.334C134.025 43.334 134.196 43.4886 134.229 43.7979ZM153.052 27.0742L152.539 27.001H152.441C152.035 27.001 151.611 26.8382 151.172 26.5127C150.749 26.1872 150.537 25.6094 150.537 24.7793C150.537 23.9492 150.985 23.0052 151.88 21.9473C152.791 20.8893 154.02 19.9209 155.566 19.042C157.113 18.1468 159.033 17.4144 161.328 16.8447C163.639 16.2751 166.073 15.9902 168.628 15.9902C173.853 15.9902 177.93 17.0238 180.859 19.0908C183.805 21.1416 185.278 23.8109 185.278 27.0986C185.278 29.1494 184.823 31.2002 183.911 33.251C183 35.3018 181.779 37.1979 180.249 38.9395C178.719 40.6647 176.921 42.2842 174.854 43.7979C172.786 45.2952 170.622 46.5729 168.359 47.6309C163.477 49.877 158.805 51 154.346 51C152.148 51 150.765 50.821 150.195 50.4629C149.984 50.349 149.772 50.1781 149.561 49.9502C149.365 49.7061 149.211 49.5433 149.097 49.4619C148.787 49.2666 148.633 48.8516 148.633 48.2168C148.633 47.5658 148.698 46.9798 148.828 46.459C149.316 44.7174 151.506 40.9414 155.396 35.1309C159.302 29.304 162.565 24.6084 165.186 21.0439C165.365 20.7998 166.284 20.6208 167.944 20.5068C168.628 20.5068 169.1 20.5557 169.36 20.6533C169.621 20.751 169.751 20.93 169.751 21.1904C169.751 21.4346 169.328 22.1507 168.481 23.3389C167.635 24.5107 164.917 28.6367 160.327 35.7168C155.737 42.7806 153.442 46.4102 153.442 46.6055C153.442 46.8008 154.159 46.8984 155.591 46.8984C157.039 46.8984 158.813 46.5973 160.913 45.9951C163.029 45.3766 165.015 44.571 166.87 43.5781C168.726 42.5853 170.5 41.4378 172.192 40.1357C173.885 38.8174 175.334 37.4746 176.538 36.1074C179.175 33.1126 180.493 30.4515 180.493 28.124C180.493 25.7965 179.427 23.819 177.295 22.1914C175.179 20.5638 172.274 19.75 168.579 19.75C166.089 19.75 163.737 20.165 161.523 20.9951C159.31 21.8252 157.788 22.5658 156.958 23.2168C156.128 23.8678 155.713 24.3073 155.713 24.5352C155.713 24.6654 155.811 24.7305 156.006 24.7305L157.056 24.5352C157.202 24.5352 157.275 24.5677 157.275 24.6328C157.275 24.6979 157.137 24.8118 156.86 24.9746C156.584 25.1374 156.356 25.3164 156.177 25.5117C156.014 25.6908 155.591 25.9919 154.907 26.415C154.224 26.8219 153.605 27.0417 153.052 27.0742ZM198.877 32.7383C198.877 33.8125 198.438 34.7565 197.559 35.5703C196.696 36.3841 195.711 36.791 194.604 36.791C194.246 36.791 194.01 36.7096 193.896 36.5469C193.783 36.3678 193.726 36.14 193.726 35.8633C193.726 35.5866 193.758 35.318 193.823 35.0576C193.237 35.2529 192.586 35.554 191.87 35.9609C191.154 36.3678 190.275 36.9701 189.233 37.7676C188.192 38.5651 187.671 39.1592 187.671 39.5498C187.671 39.68 187.858 39.7451 188.232 39.7451C188.623 39.7451 189.217 39.6149 190.015 39.3545C190.812 39.0778 191.366 38.9395 191.675 38.9395C192 38.9395 192.212 38.9557 192.31 38.9883C192.521 39.1022 192.749 39.3545 192.993 39.7451C193.237 40.1195 193.359 40.4206 193.359 40.6484C193.359 40.86 193.148 41.1449 192.725 41.5029C192.301 41.861 191.821 42.1377 191.284 42.333C190.747 42.512 190.389 42.6504 190.21 42.748C186.776 44.6686 185.059 45.987 185.059 46.7031C185.059 47.9727 186.141 48.6074 188.306 48.6074C189.689 48.6074 191.081 48.168 192.48 47.2891C193.669 46.5404 194.735 45.7835 195.679 45.0186C196.639 44.2373 197.241 43.7572 197.485 43.5781C197.746 43.3991 197.941 43.3096 198.071 43.3096C198.494 43.3096 198.706 43.7816 198.706 44.7256C198.706 45.6696 198.649 46.2962 198.535 46.6055C198.421 46.8984 198.096 47.2646 197.559 47.7041C194.076 50.5361 190.78 51.9521 187.671 51.9521C186.011 51.9521 184.684 51.7243 183.691 51.2686C181.868 50.4385 180.957 49.1689 180.957 47.46C180.957 45.2139 182.511 43.513 185.62 42.3574C185.002 42.0807 184.603 41.7308 184.424 41.3076C184.245 40.8682 184.155 40.1764 184.155 39.2324C184.155 38.2721 184.595 37.263 185.474 36.2051C186.369 35.1309 187.459 34.252 188.745 33.5684C191.61 32.0221 194.165 31.249 196.411 31.249C196.948 31.249 197.493 31.3792 198.047 31.6396C198.6 31.9001 198.877 32.2663 198.877 32.7383ZM200.635 46.1172L200.61 46.5078C200.61 46.9147 200.765 47.2646 201.074 47.5576C201.383 47.8506 201.668 47.9971 201.929 47.9971C203.882 47.9971 205.607 47.7041 207.104 47.1182C208.618 46.5322 209.375 45.9463 209.375 45.3604C209.375 45.0837 209.098 44.8477 208.545 44.6523C208.008 44.4408 207.088 44.1885 205.786 43.8955C204.5 43.5863 203.564 43.3503 202.979 43.1875C202.393 43.0085 201.929 42.8457 201.587 42.6992C201.245 42.5527 200.895 42.3493 200.537 42.0889C199.772 41.5518 199.39 40.7542 199.39 39.6963C199.39 38.6221 199.78 37.5641 200.562 36.5225C201.359 35.4645 202.352 34.5612 203.54 33.8125C204.728 33.0638 206.006 32.4046 207.373 31.835C210.075 30.7119 212.345 30.1504 214.185 30.1504C215.991 30.1504 217.106 30.541 217.529 31.3223C217.66 31.599 217.725 31.9082 217.725 32.25V32.4209C217.725 33.2835 217.537 33.959 217.163 34.4473C216.805 34.9355 216.227 35.375 215.43 35.7656C214.648 36.1562 214.022 36.3516 213.55 36.3516C213.094 36.3516 212.801 36.319 212.671 36.2539C212.557 36.1888 212.459 36.1074 212.378 36.0098C212.297 35.8958 212.191 35.8145 212.061 35.7656C211.947 35.7168 211.89 35.5947 211.89 35.3994C211.89 35.2041 211.971 35.0088 212.134 34.8135C212.297 34.6019 212.41 34.3822 212.476 34.1543C211.401 34.2031 210.278 34.4554 209.106 34.9111C207.935 35.3506 206.925 35.847 206.079 36.4004C205.249 36.9538 204.557 37.4827 204.004 37.9873C203.451 38.4919 203.174 38.8662 203.174 39.1104C203.174 39.3382 203.548 39.5254 204.297 39.6719C207.666 40.3392 209.88 40.917 210.938 41.4053C211.995 41.8936 212.728 42.4469 213.135 43.0654C213.542 43.6839 213.745 44.2454 213.745 44.75C213.745 45.7917 213.33 46.7764 212.5 47.7041C211.67 48.6318 210.645 49.3887 209.424 49.9746C206.803 51.2604 204.517 51.9033 202.563 51.9033C200.627 51.9033 199.284 51.6022 198.535 51C197.803 50.4141 197.437 49.7142 197.437 48.9004C197.437 48.0866 197.64 47.3379 198.047 46.6543C198.47 45.9544 199.007 45.6045 199.658 45.6045C200.309 45.6045 200.635 45.7754 200.635 46.1172ZM232.251 24.1934C232.251 25.1211 231.82 26.057 230.957 27.001C230.094 27.9287 229.191 28.3926 228.247 28.3926C227.319 28.3926 226.855 27.9043 226.855 26.9277C226.855 25.9512 227.262 25.0234 228.076 24.1445C228.906 23.2493 229.818 22.8018 230.811 22.8018C231.25 22.8018 231.6 22.9238 231.86 23.168C232.121 23.4121 232.251 23.7539 232.251 24.1934ZM228.296 45.5068C228.296 45.9951 228.247 46.3451 228.149 46.5566C227.352 48.1842 226.082 49.5026 224.341 50.5117C222.599 51.5046 221.086 52.001 219.8 52.001C218.514 52.001 217.407 51.5697 216.479 50.707C215.552 49.8444 215.088 48.9655 215.088 48.0703C215.088 47.1751 215.535 45.873 216.431 44.1641C217.326 42.4551 218.221 40.8763 219.116 39.4277C220.011 37.9792 220.459 37.1979 220.459 37.084C220.459 36.9538 220.288 36.7096 219.946 36.3516C219.621 35.9935 219.458 35.7331 219.458 35.5703C219.458 35.3913 219.792 34.9437 220.459 34.2275C221.143 33.4951 221.965 32.779 222.925 32.0791C223.901 31.363 224.642 31.0049 225.146 31.0049C225.667 31.0049 226.131 31.2327 226.538 31.6885C226.945 32.1442 227.148 32.5592 227.148 32.9336C227.148 33.3079 225.212 36.8317 221.338 43.5049C221.289 43.6025 221.151 43.8223 220.923 44.1641C220.711 44.4896 220.54 44.7663 220.41 44.9941C220.296 45.2057 220.158 45.4661 219.995 45.7754C219.67 46.4264 219.507 46.9717 219.507 47.4111C219.507 47.9645 219.881 48.2412 220.63 48.2412C221.379 48.2412 222.152 47.9889 222.949 47.4844C223.763 46.9635 224.463 46.3939 225.049 45.7754C226.579 44.1315 227.45 43.3096 227.661 43.3096C228.084 43.3096 228.296 44.042 228.296 45.5068ZM234.106 34.7891C235.685 33.6986 237.231 32.8604 238.745 32.2744C240.259 31.6885 241.569 31.3955 242.676 31.3955C243.783 31.3955 244.491 31.7129 244.8 32.3477C245.435 31.6152 246.224 31.2246 247.168 31.1758C247.445 31.1595 247.786 31.1514 248.193 31.1514C248.6 31.1514 248.853 31.2083 248.95 31.3223C249.048 31.4199 249.137 31.6152 249.219 31.9082C249.3 32.2012 249.349 32.3639 249.365 32.3965C249.382 32.429 249.39 32.486 249.39 32.5674C249.39 32.6325 249.349 32.722 249.268 32.8359C249.186 32.9336 249.089 33.0312 248.975 33.1289C248.877 33.2266 248.82 33.2835 248.804 33.2998C245.207 38.4593 241.528 44.3431 237.769 50.9512C241.642 47.5169 245.109 45.0511 248.169 43.5537C248.364 43.4561 248.551 43.4072 248.73 43.4072C248.991 43.4072 249.162 43.5781 249.243 43.9199C249.325 44.2454 249.365 44.7174 249.365 45.3359C249.365 45.9544 249.325 46.3369 249.243 46.4834C249.178 46.6299 248.804 46.9229 248.12 47.3623C247.437 47.8018 246.549 48.3714 245.459 49.0713C244.368 49.7712 243.213 50.5443 241.992 51.3906C239.062 53.4251 236.654 55.5654 234.766 57.8115C232.324 60.7575 230.575 63.1338 229.517 64.9404C229.126 65.6403 228.467 65.9902 227.539 65.9902C225.7 65.9902 224.78 65.1195 224.78 63.3779C224.78 61.6038 225.651 59.7891 227.393 57.9336C228.695 56.5501 229.891 55.4189 230.981 54.54C232.072 53.6611 232.666 53.1647 232.764 53.0508C233.968 51.2441 235.604 48.6807 237.671 45.3604C235.913 47.1995 234.204 48.6644 232.544 49.7549C230.9 50.8454 229.671 51.3906 228.857 51.3906C226.367 51.3906 225.122 50.3245 225.122 48.1924C225.122 46.4997 225.553 44.7907 226.416 43.0654C227.279 41.3402 228.385 39.8021 229.736 38.4512C231.087 37.084 232.544 35.8633 234.106 34.7891ZM243.408 34.1543C241.52 34.5612 239.746 35.2367 238.086 36.1807C236.426 37.1084 235.059 38.1094 233.984 39.1836C232.91 40.2415 231.982 41.332 231.201 42.4551C229.736 44.5547 229.004 46.1823 229.004 47.3379C229.004 47.6146 229.069 47.7529 229.199 47.7529C229.346 47.7529 229.655 47.6064 230.127 47.3135C230.615 47.0205 231.299 46.5241 232.178 45.8242C233.057 45.1081 234.033 44.2617 235.107 43.2852C237.598 40.9902 240.365 37.9466 243.408 34.1543ZM260.205 47.2402C260.205 47.9564 260.693 48.3145 261.67 48.3145C262.191 48.3145 262.842 48.054 263.623 47.5332C264.421 47.0124 265.137 46.4427 265.771 45.8242C267.464 44.1478 268.424 43.3096 268.652 43.3096C269.076 43.3096 269.287 43.9199 269.287 45.1406C269.287 46.3613 268.905 47.1995 268.14 47.6553C265.812 49.7549 264.014 51.0326 262.744 51.4883C262.028 51.7324 261.239 51.8464 260.376 51.8301C259.513 51.8138 258.659 51.4395 257.812 50.707C256.966 49.9746 256.543 49.0876 256.543 48.0459C256.543 46.988 256.82 45.7917 257.373 44.457C257.926 43.1224 258.488 41.9831 259.058 41.0391C259.644 40.0788 260.36 38.972 261.206 37.7188C262.052 36.4492 262.5 35.6598 262.549 35.3506L262.5 35.3018C261.963 35.3506 260.628 36.4085 258.496 38.4756C256.38 40.5426 254.631 42.3411 253.247 43.8711C251.864 45.401 250.212 47.4437 248.291 49.999C247.754 50.6989 247.314 51.0488 246.973 51.0488C246.631 51.0488 246.175 50.943 245.605 50.7314C245.02 50.5036 244.661 50.3408 244.531 50.2432C244.401 50.1455 244.336 49.999 244.336 49.8037C244.336 49.6084 244.393 49.3724 244.507 49.0957C244.621 48.8027 244.735 48.5667 244.849 48.3877C244.946 48.1924 245.117 47.8994 245.361 47.5088C245.605 47.1182 246.086 46.2962 246.802 45.043C247.534 43.7734 248.649 41.8854 250.146 39.3789C251.644 36.8724 252.539 35.3587 252.832 34.8379C253.451 33.7637 253.955 32.9824 254.346 32.4941C255.078 31.5664 256.315 31.1025 258.057 31.1025C258.447 31.1025 258.643 31.3467 258.643 31.835C258.643 32.5999 257.935 34.0404 256.519 36.1562L255.493 37.6943C258.309 34.5693 260.685 32.5918 262.622 31.7617C263.566 31.3548 264.412 31.1514 265.161 31.1514C265.926 31.1514 266.528 31.3548 266.968 31.7617C267.424 32.1686 267.651 32.6243 267.651 33.1289C267.651 33.6172 267.48 34.2113 267.139 34.9111C266.797 35.5947 266.447 36.2132 266.089 36.7666C265.747 37.3037 265.291 37.9873 264.722 38.8174C264.152 39.6475 263.843 40.1032 263.794 40.1846C263.745 40.2497 263.615 40.445 263.403 40.7705C263.208 41.0798 263.062 41.3076 262.964 41.4541C262.866 41.6006 262.703 41.861 262.476 42.2354C262.248 42.5934 262.061 42.8945 261.914 43.1387C261.784 43.3828 261.613 43.6839 261.401 44.042C261.206 44.4001 261.043 44.7093 260.913 44.9697C260.799 45.2301 260.677 45.515 260.547 45.8242C260.319 46.3939 260.205 46.8659 260.205 47.2402Z" fill="#1A1A1A"/>
<defs>
<linearGradient id="paint0_linear_446_101" x1="0" y1="56" x2="266" y2="58.0002" gradientUnits="userSpaceOnUse">
<stop stop-color="#F84525"/>
<stop offset="1" stop-color="#FFC300"/>
</linearGradient>
</defs>
</svg>
