<svg width="304" height="75" viewBox="0 0 304 75" fill="none" xmlns="http://www.w3.org/2000/svg">
<rect y="61.7646" width="293.382" height="6.61765" rx="3.30882" fill="url(#paint0_linear_494_2)"/>
<path d="M249.264 61.7646H262.5L258.639 68.3823H244.853L249.264 61.7646Z" fill="white"/>
<path d="M7.33154 48.6147L6.98242 49.3398C6.98242 49.859 7.70752 50.3604 9.15771 50.8438C10.6258 51.3092 12.2282 51.542 13.9648 51.542C15.7194 51.542 17.644 51.2824 19.7388 50.7632C21.8335 50.244 23.6507 49.6084 25.1904 48.8564C26.748 48.1045 28.0282 47.3167 29.0308 46.4932C30.0513 45.6696 30.5615 44.9535 30.5615 44.3447C30.5615 43.5749 29.6663 42.8587 27.876 42.1963C26.0856 41.5339 23.4806 40.8088 20.061 40.021C16.6593 39.2153 14.1618 38.2038 12.5684 36.9863C10.9928 35.7689 10.2051 34.2918 10.2051 32.5552C10.2051 30.8006 10.8317 29.1266 12.085 27.5332C13.3382 25.9398 14.9674 24.5254 16.9727 23.29C18.9958 22.0547 21.1979 20.9536 23.5791 19.9868C28.5026 17.9995 33.068 17.0059 37.2754 17.0059C38.8867 17.0059 40.3101 17.1491 41.5454 17.4355C43.9087 17.9906 45.0903 18.7246 45.0903 19.6377C45.0903 20.5508 45.0098 21.1774 44.8486 21.5176C44.6875 21.8398 44.5532 22.0547 44.4458 22.1621C44.3563 22.2695 44.231 22.377 44.0698 22.4844C43.9266 22.5918 43.8192 22.6724 43.7476 22.7261C42.9598 23.3885 40.8024 23.8003 37.2754 23.9614C36.0579 24.0151 35.3955 24.0778 35.2881 24.1494C35.1807 24.221 35.0822 24.2568 34.9927 24.2568C34.9211 24.2568 34.8315 24.1852 34.7241 24.042C34.6167 23.8988 34.563 23.666 34.563 23.3438C34.563 23.0215 34.9121 22.4307 35.6104 21.5713C33.4261 21.6966 31.0897 22.1979 28.6011 23.0752C26.1304 23.9525 23.9819 24.9461 22.1558 26.0562C20.3296 27.1483 18.8078 28.2314 17.5903 29.3057C16.3729 30.362 15.7642 31.1139 15.7642 31.5615C15.7642 31.9912 15.8984 32.3493 16.167 32.6357C16.9189 33.4414 19.0047 34.2829 22.4243 35.1602C25.9692 36.0732 28.3325 36.8073 29.5142 37.3623C30.6958 37.9173 31.6715 38.4455 32.4414 38.9468C33.2292 39.4481 33.8558 39.9583 34.3213 40.4775C35.4134 41.7308 35.9595 43.002 35.9595 44.291C35.9595 45.5801 35.6104 46.7886 34.9121 47.9165C34.2318 49.0444 33.1934 50.1366 31.7969 51.1929C30.4183 52.2492 28.7891 53.1891 26.9092 54.0127C22.7913 55.8568 17.8857 56.7788 12.1924 56.7788C8.03874 56.7788 5.389 55.6777 4.24316 53.4756C3.9388 52.9206 3.78662 52.3477 3.78662 51.7568C3.78662 51.1481 3.9209 50.6021 4.18945 50.1187C4.47591 49.6353 4.81608 49.2682 5.20996 49.0176C5.97982 48.5342 6.52588 48.2925 6.84814 48.2925C7.17041 48.2925 7.33154 48.3999 7.33154 48.6147ZM38.457 56.1611L37.1411 56.1074H36.6577C36.4787 56.0537 36.2907 55.9463 36.0938 55.7852C35.8789 55.624 35.7178 55.5076 35.6104 55.436C35.5029 55.3644 35.4492 55.2391 35.4492 55.0601C35.4492 54.8631 35.5208 54.5319 35.6641 54.0664C39.1553 46.3857 42.5301 40.2448 45.7886 35.6436C46.1466 35.1423 46.7196 34.7663 47.5073 34.5156C48.313 34.2471 49.0918 34.1128 49.8438 34.1128C50.2913 34.1128 50.5151 34.4619 50.5151 35.1602C50.5151 35.3571 50.4435 35.6257 50.3003 35.9658C50.1571 36.2881 49.799 36.8252 49.2261 37.5771C48.6532 38.3291 47.9728 39.1885 47.1851 40.1553C46.3973 41.1221 45.9497 41.6771 45.8423 41.8203C48.2951 39.278 50.5062 37.3892 52.4756 36.1538C54.4629 34.9006 55.8952 34.2739 56.7725 34.2739C57.6676 34.2739 58.348 34.5335 58.8135 35.0527C59.2969 35.554 59.5386 36.1001 59.5386 36.6909C59.5386 37.2638 59.4938 37.7472 59.4043 38.1411C59.3327 38.5171 59.1895 38.9199 58.9746 39.3496C58.7598 39.7614 58.5718 40.1195 58.4106 40.4238C58.2674 40.7103 58.0168 41.0952 57.6587 41.5786C57.3006 42.0441 57.05 42.3664 56.9067 42.5454C56.7814 42.7244 56.5039 43.0646 56.0742 43.5659C55.6624 44.0672 55.4386 44.3447 55.4028 44.3984C55.9041 43.8971 56.6024 43.1541 57.4976 42.1694C58.3927 41.1847 59.1447 40.3612 59.7534 39.6987C60.38 39.0363 61.1589 38.2933 62.0898 37.4697C63.0208 36.6283 63.8892 35.9479 64.6948 35.4287C66.6284 34.2113 68.5889 33.6025 70.5762 33.6025C71.2565 33.6025 71.8294 33.8174 72.2949 34.2471C72.7604 34.6768 72.9932 35.196 72.9932 35.8047C72.9932 36.3955 72.2681 37.8278 70.8179 40.1016C69.3677 42.3574 67.9175 44.6312 66.4673 46.9229C65.035 49.1966 64.3188 50.6289 64.3188 51.2197C64.3188 52.0433 64.471 52.5356 64.7754 52.6968C65.0798 52.84 65.4468 52.8937 65.8765 52.8579C66.3062 52.8221 66.9059 52.5446 67.6758 52.0254C68.4635 51.5062 69.1618 50.9691 69.7705 50.4141C70.7552 49.5189 71.6683 48.6506 72.5098 47.8091C72.6888 47.6479 72.8857 47.5674 73.1006 47.5674C73.4408 47.5674 73.6466 47.827 73.7183 48.3462C73.7899 48.8654 73.8257 49.4025 73.8257 49.9575C73.8257 50.5125 73.772 50.8975 73.6646 51.1123C73.1453 52.1149 71.9995 53.3413 70.2271 54.7915C68.4546 56.2417 66.7537 56.9668 65.1245 56.9668C64.9276 56.9668 64.7843 56.9578 64.6948 56.9399C62.8507 56.7609 61.5706 56.2596 60.8545 55.436C60.1562 54.5946 59.8071 53.6009 59.8071 52.4551C59.8071 51.3092 60.1921 49.9217 60.9619 48.2925C61.7497 46.6632 62.609 45.1862 63.54 43.8613C64.471 42.5365 65.3215 41.3459 66.0913 40.2896C66.8791 39.2153 67.2729 38.6335 67.2729 38.5439C67.2729 38.4544 67.2013 38.4097 67.0581 38.4097C66.5031 38.4097 65.2677 39.3049 63.3521 41.0952C60.0757 44.1567 57.2469 47.1108 54.8657 49.9575C54.2391 50.7095 52.7531 52.6162 50.4077 55.6777C50.1392 56.0358 49.7095 56.2148 49.1187 56.2148C48.5457 56.2148 47.946 56.1074 47.3193 55.8926C46.6927 55.6598 46.3794 55.3644 46.3794 55.0063C46.3794 54.8273 47.8027 52.3208 50.6494 47.4868C53.4961 42.6349 54.9194 39.9941 54.9194 39.5645C54.9194 39.1169 54.6509 38.8931 54.1138 38.8931C53.5946 38.8931 52.5114 39.6808 50.8643 41.2563C46.3346 45.589 42.8255 49.8949 40.3369 54.1738C40.1758 54.4245 39.8625 54.8184 39.397 55.3555C38.9315 55.8926 38.6182 56.1611 38.457 56.1611ZM90.1538 35.5361C90.6909 35.5361 91.237 35.7778 91.792 36.2612C92.3649 36.7446 92.6514 37.4876 92.6514 38.4902C92.6514 39.4749 92.3022 40.764 91.604 42.3574C90.9058 43.9329 89.9479 45.5443 88.7305 47.1914C87.513 48.8206 86.1702 50.3604 84.7021 51.8105C83.252 53.2428 81.6764 54.4245 79.9756 55.3555C78.2926 56.2686 76.7619 56.7251 75.3833 56.7251C74.0047 56.7251 72.8947 56.2954 72.0532 55.436C71.2297 54.5588 70.8179 53.3503 70.8179 51.8105C70.8179 50.2529 71.1938 48.5342 71.9458 46.6543C72.7157 44.7744 73.7004 43.1183 74.8999 41.686C76.0994 40.2358 77.3975 38.9378 78.7939 37.792C81.7122 35.4466 84.2725 34.2739 86.4746 34.2739C87.4593 34.2739 88.2023 34.5156 88.7036 34.999C88.8826 35.1602 88.9722 35.3034 88.9722 35.4287V35.5898C89.2228 35.554 89.6167 35.5361 90.1538 35.5361ZM87.4414 39.1079H87.2534C86.6268 39.1079 86.3135 38.6514 86.3135 37.7383C85.0065 38.168 83.6369 38.9199 82.2046 39.9941C80.7723 41.0684 79.4922 42.3395 78.3643 43.8076C76.0726 46.7438 74.9089 49.2235 74.873 51.2466C74.873 52.2492 75.2401 52.7505 75.9741 52.7505C76.7082 52.7505 77.8003 52.2671 79.2505 51.3003C80.7007 50.3335 82.133 48.9549 83.5474 47.1646C84.9797 45.3742 86.0449 43.8255 86.7432 42.5186C87.4593 41.1937 87.8174 40.2985 87.8174 39.833C87.8174 39.3496 87.6921 39.1079 87.4414 39.1079ZM110.295 35.5361C110.833 35.5361 111.379 35.7778 111.934 36.2612C112.507 36.7446 112.793 37.4876 112.793 38.4902C112.793 39.4749 112.444 40.764 111.746 42.3574C111.047 43.9329 110.09 45.5443 108.872 47.1914C107.655 48.8206 106.312 50.3604 104.844 51.8105C103.394 53.2428 101.818 54.4245 100.117 55.3555C98.4342 56.2686 96.9035 56.7251 95.5249 56.7251C94.1463 56.7251 93.0363 56.2954 92.1948 55.436C91.3713 54.5588 90.9595 53.3503 90.9595 51.8105C90.9595 50.2529 91.3354 48.5342 92.0874 46.6543C92.8573 44.7744 93.842 43.1183 95.0415 41.686C96.241 40.2358 97.5391 38.9378 98.9355 37.792C101.854 35.4466 104.414 34.2739 106.616 34.2739C107.601 34.2739 108.344 34.5156 108.845 34.999C109.024 35.1602 109.114 35.3034 109.114 35.4287V35.5898C109.364 35.554 109.758 35.5361 110.295 35.5361ZM107.583 39.1079H107.395C106.768 39.1079 106.455 38.6514 106.455 37.7383C105.148 38.168 103.778 38.9199 102.346 39.9941C100.914 41.0684 99.6338 42.3395 98.5059 43.8076C96.2142 46.7438 95.0505 49.2235 95.0146 51.2466C95.0146 52.2492 95.3817 52.7505 96.1157 52.7505C96.8498 52.7505 97.9419 52.2671 99.3921 51.3003C100.842 50.3335 102.275 48.9549 103.689 47.1646C105.121 45.3742 106.187 43.8255 106.885 42.5186C107.601 41.1937 107.959 40.2985 107.959 39.833C107.959 39.3496 107.834 39.1079 107.583 39.1079ZM130.679 21.4102L131.78 21.6787C131.941 21.6787 132.084 21.7593 132.209 21.9204C132.335 22.0815 132.397 22.2337 132.397 22.377C132.397 22.5202 132.209 22.9051 131.833 23.5317C131.458 24.1584 131.01 24.8745 130.491 25.6802C129.989 26.4679 129.721 26.8976 129.685 26.9692C131.082 26.8618 132.066 26.8081 132.639 26.8081C133.23 26.8081 133.633 26.8529 133.848 26.9424C134.062 27.014 134.304 27.2378 134.573 27.6138C134.859 27.9718 135.119 28.2493 135.352 28.4463C135.584 28.6253 135.701 28.9028 135.701 29.2788C135.701 29.6548 135.468 29.9771 135.002 30.2456C134.555 30.4963 134.071 30.6484 133.552 30.7021C129.399 31.1139 127.107 31.3288 126.677 31.3467C125.227 33.5667 123.195 37.0311 120.581 41.7397C117.985 46.4305 116.606 49.3667 116.445 50.5483C116.374 51.0854 116.338 51.5241 116.338 51.8643C116.338 52.5625 116.705 52.9116 117.439 52.9116C118.173 52.9116 118.988 52.6341 119.883 52.0791C120.778 51.5062 121.602 50.8885 122.354 50.2261C124.359 48.4357 125.433 47.5405 125.576 47.5405C126.042 47.5405 126.274 48.3462 126.274 49.9575C126.274 50.8348 125.872 51.6226 125.066 52.3208C123.258 53.8784 121.736 55.0511 120.5 55.8389C119.265 56.6266 118.03 57.0205 116.794 57.0205C116.526 57.0205 116.275 56.9937 116.042 56.9399C114.61 56.6714 113.554 56.1522 112.874 55.3823C112.211 54.5946 111.88 53.5382 111.88 52.2134C111.898 50.8885 112.292 49.2861 113.062 47.4062C113.849 45.5085 114.834 43.4943 116.016 41.3638C117.949 37.8905 119.883 34.632 121.816 31.5884L120.796 31.7227C118.719 31.9554 117.511 32.0718 117.17 32.0718H116.929C116.41 32.0718 115.908 31.9733 115.425 31.7764C114.941 31.5615 114.7 31.3019 114.7 30.9976C114.7 30.6932 114.825 30.3978 115.076 30.1113C115.344 29.8249 115.505 29.6011 115.559 29.4399C115.684 29.0461 116.15 28.6074 116.956 28.124C117.779 27.6406 118.397 27.39 118.809 27.3721C119.22 27.3363 119.614 27.3094 119.99 27.2915C120.384 27.2736 120.814 27.2557 121.279 27.2378C121.763 27.2199 122.13 27.202 122.38 27.1841L124.797 27.0767C126.301 24.8208 127.331 23.3706 127.886 22.7261C128.459 22.0815 128.79 21.7324 128.879 21.6787C128.969 21.6071 129.148 21.5713 129.417 21.5713L130.679 21.4102ZM147.651 48.0776C147.777 48.9012 147.839 49.5547 147.839 50.0381C147.839 50.5036 147.75 50.9154 147.571 51.2734C147.41 51.6136 147.034 52.106 146.443 52.7505C145.87 53.3771 145.181 54.0127 144.375 54.6572C142.406 56.2148 140.391 56.9937 138.333 56.9937C135.378 56.9937 133.901 55.6867 133.901 53.0728C133.901 50.799 135.88 46.2694 139.836 39.4839C139.98 39.2332 140.078 39.0542 140.132 38.9468C138.753 39.9136 136.112 42.5544 132.209 46.8691C128.324 51.166 125.737 54.2096 124.448 56C124.341 56.1611 124.072 56.3402 123.643 56.5371C123.213 56.734 122.873 56.8325 122.622 56.8325C122.389 56.8325 122.139 56.752 121.87 56.5908C121.584 56.4476 121.405 56.376 121.333 56.376C121.1 56.376 120.984 56.2954 120.984 56.1343C120.984 55.991 121.306 55.1764 121.951 53.6904C122.577 52.1865 123.41 50.3245 124.448 48.1045C127.295 41.9814 131.529 34.0143 137.151 24.2031C139.12 20.7656 140.66 18.3307 141.77 16.8984C142.558 15.8779 143.883 15.3677 145.745 15.3677C146.139 15.3677 146.362 15.484 146.416 15.7168C146.47 15.9495 146.497 16.2002 146.497 16.4688C146.497 16.7373 146.443 17.0059 146.335 17.2744L143.462 21.7593C137.769 30.6395 133.481 37.9979 130.598 43.8345C133.391 40.4328 136.104 37.8099 138.735 35.9658C140.365 34.8021 141.582 34.2202 142.388 34.2202C143.211 34.2202 143.954 34.3545 144.617 34.623C145.279 34.8737 145.61 35.4914 145.61 36.4761C145.61 36.8341 145.028 38.159 143.865 40.4507C140.374 47.3257 138.628 51.1481 138.628 51.918C138.628 52.6699 138.941 53.0459 139.568 53.0459C140.481 53.0459 141.886 52.1597 143.784 50.3872C145.216 49.0444 146.121 48.1851 146.497 47.8091C146.711 47.6479 146.908 47.5674 147.087 47.5674C147.428 47.5674 147.616 47.7375 147.651 48.0776ZM168.357 29.6816L167.793 29.6011H167.686C167.238 29.6011 166.772 29.422 166.289 29.064C165.824 28.7059 165.591 28.0703 165.591 27.1572C165.591 26.2441 166.083 25.2057 167.068 24.042C168.07 22.8783 169.422 21.813 171.123 20.8462C172.824 19.8615 174.937 19.0558 177.461 18.4292C180.003 17.8026 182.68 17.4893 185.491 17.4893C191.238 17.4893 195.723 18.6261 198.945 20.8999C202.186 23.1558 203.806 26.092 203.806 29.7085C203.806 31.9644 203.305 34.2202 202.302 36.4761C201.3 38.7319 199.957 40.8177 198.274 42.7334C196.591 44.6312 194.613 46.4126 192.339 48.0776C190.065 49.7248 187.684 51.1302 185.195 52.2939C179.824 54.7646 174.686 56 169.78 56C167.363 56 165.841 55.8031 165.215 55.4092C164.982 55.2839 164.749 55.0959 164.517 54.8452C164.302 54.5767 164.132 54.3976 164.006 54.3081C163.666 54.0933 163.496 53.6367 163.496 52.9385C163.496 52.2223 163.568 51.5778 163.711 51.0049C164.248 49.0892 166.656 44.9355 170.935 38.5439C175.232 32.1344 178.822 26.9692 181.704 23.0483C181.901 22.7798 182.913 22.5828 184.739 22.4575C185.491 22.4575 186.01 22.5112 186.296 22.6187C186.583 22.7261 186.726 22.923 186.726 23.2095C186.726 23.478 186.261 24.2658 185.33 25.5728C184.399 26.8618 181.409 31.4004 176.36 39.1885C171.311 46.9587 168.787 50.9512 168.787 51.166C168.787 51.3809 169.574 51.4883 171.15 51.4883C172.743 51.4883 174.695 51.1571 177.004 50.4946C179.332 49.8143 181.516 48.9281 183.557 47.8359C185.598 46.7438 187.55 45.4816 189.412 44.0493C191.274 42.5991 192.867 41.1221 194.192 39.6182C197.092 36.3239 198.542 33.3966 198.542 30.8364C198.542 28.2762 197.37 26.1009 195.024 24.3105C192.697 22.5202 189.501 21.625 185.437 21.625C182.698 21.625 180.111 22.0815 177.676 22.9946C175.241 23.9077 173.567 24.7223 172.654 25.4385C171.741 26.1546 171.284 26.638 171.284 26.8887C171.284 27.0319 171.392 27.1035 171.606 27.1035L172.761 26.8887C172.922 26.8887 173.003 26.9245 173.003 26.9961C173.003 27.0677 172.851 27.193 172.546 27.3721C172.242 27.5511 171.991 27.748 171.794 27.9629C171.615 28.1598 171.15 28.491 170.398 28.9565C169.646 29.4041 168.966 29.6458 168.357 29.6816ZM218.765 35.9121C218.765 37.0938 218.281 38.1322 217.314 39.0273C216.366 39.9225 215.282 40.3701 214.065 40.3701C213.671 40.3701 213.411 40.2806 213.286 40.1016C213.161 39.9046 213.098 39.654 213.098 39.3496C213.098 39.0452 213.134 38.7498 213.206 38.4634C212.561 38.6782 211.845 39.0094 211.057 39.457C210.269 39.9046 209.303 40.5671 208.157 41.4443C207.011 42.3216 206.438 42.9751 206.438 43.4048C206.438 43.548 206.644 43.6196 207.056 43.6196C207.485 43.6196 208.139 43.4764 209.016 43.1899C209.893 42.8856 210.502 42.7334 210.842 42.7334C211.2 42.7334 211.433 42.7513 211.541 42.7871C211.773 42.9124 212.024 43.1899 212.292 43.6196C212.561 44.0314 212.695 44.3626 212.695 44.6133C212.695 44.846 212.463 45.1593 211.997 45.5532C211.532 45.9471 211.003 46.2515 210.413 46.4663C209.822 46.6632 209.428 46.8154 209.231 46.9229C205.453 49.0355 203.564 50.4857 203.564 51.2734C203.564 52.6699 204.755 53.3682 207.136 53.3682C208.658 53.3682 210.189 52.8848 211.729 51.918C213.035 51.0944 214.208 50.2619 215.247 49.4204C216.303 48.561 216.965 48.0329 217.234 47.8359C217.52 47.639 217.735 47.5405 217.878 47.5405C218.344 47.5405 218.577 48.0597 218.577 49.0981C218.577 50.1366 218.514 50.8258 218.389 51.166C218.263 51.4883 217.905 51.8911 217.314 52.3745C213.483 55.4897 209.858 57.0474 206.438 57.0474C204.612 57.0474 203.153 56.7967 202.061 56.2954C200.055 55.3823 199.053 53.9858 199.053 52.106C199.053 49.6353 200.763 47.7643 204.182 46.4932C203.502 46.1888 203.063 45.8039 202.866 45.3384C202.669 44.855 202.571 44.0941 202.571 43.0557C202.571 41.9993 203.054 40.8893 204.021 39.7256C205.006 38.5439 206.205 37.5771 207.62 36.8252C210.771 35.1243 213.582 34.2739 216.052 34.2739C216.643 34.2739 217.243 34.4172 217.852 34.7036C218.46 34.9901 218.765 35.3929 218.765 35.9121ZM220.698 50.6289L220.671 51.0586C220.671 51.5062 220.841 51.8911 221.182 52.2134C221.522 52.5356 221.835 52.6968 222.122 52.6968C224.27 52.6968 226.168 52.3745 227.815 51.73C229.48 51.0854 230.312 50.4409 230.312 49.7964C230.312 49.492 230.008 49.2324 229.399 49.0176C228.809 48.7848 227.797 48.5073 226.365 48.1851C224.95 47.8449 223.921 47.5853 223.276 47.4062C222.632 47.2093 222.122 47.0303 221.746 46.8691C221.37 46.708 220.985 46.4842 220.591 46.1978C219.749 45.6069 219.329 44.7297 219.329 43.5659C219.329 42.3843 219.758 41.2205 220.618 40.0747C221.495 38.911 222.587 37.9173 223.894 37.0938C225.201 36.2702 226.606 35.5451 228.11 34.9185C231.082 33.6831 233.58 33.0654 235.603 33.0654C237.59 33.0654 238.817 33.4951 239.282 34.3545C239.425 34.6589 239.497 34.999 239.497 35.375V35.563C239.497 36.5119 239.291 37.2549 238.879 37.792C238.486 38.3291 237.85 38.8125 236.973 39.2422C236.113 39.6719 235.424 39.8867 234.905 39.8867C234.403 39.8867 234.081 39.8509 233.938 39.7793C233.813 39.7077 233.705 39.6182 233.616 39.5107C233.526 39.3854 233.41 39.2959 233.267 39.2422C233.141 39.1885 233.079 39.0542 233.079 38.8394C233.079 38.6245 233.168 38.4097 233.347 38.1948C233.526 37.9621 233.652 37.7204 233.723 37.4697C232.542 37.5234 231.306 37.8009 230.017 38.3022C228.728 38.7856 227.618 39.3317 226.687 39.9404C225.774 40.5492 225.013 41.131 224.404 41.686C223.796 42.241 223.491 42.6528 223.491 42.9214C223.491 43.172 223.903 43.3779 224.727 43.5391C228.433 44.2731 230.868 44.9087 232.031 45.4458C233.195 45.9829 234.001 46.5916 234.448 47.272C234.896 47.9523 235.12 48.57 235.12 49.125C235.12 50.2708 234.663 51.354 233.75 52.3745C232.837 53.395 231.709 54.2275 230.366 54.8721C227.484 56.2865 224.968 56.9937 222.82 56.9937C220.689 56.9937 219.212 56.6624 218.389 56C217.583 55.3555 217.18 54.5856 217.18 53.6904C217.18 52.7952 217.404 51.9717 217.852 51.2197C218.317 50.4499 218.908 50.0649 219.624 50.0649C220.34 50.0649 220.698 50.2529 220.698 50.6289ZM255.476 26.5127C255.476 27.5332 255.002 28.5627 254.053 29.6011C253.104 30.6216 252.11 31.1318 251.072 31.1318C250.051 31.1318 249.541 30.5947 249.541 29.5205C249.541 28.4463 249.989 27.4258 250.884 26.459C251.797 25.4743 252.799 24.9819 253.892 24.9819C254.375 24.9819 254.76 25.1162 255.046 25.3848C255.333 25.6533 255.476 26.0293 255.476 26.5127ZM251.125 49.9575C251.125 50.4946 251.072 50.8796 250.964 51.1123C250.087 52.9027 248.691 54.3529 246.775 55.4629C244.859 56.555 243.194 57.1011 241.78 57.1011C240.365 57.1011 239.148 56.6266 238.127 55.6777C237.107 54.7288 236.597 53.762 236.597 52.7773C236.597 51.7926 237.089 50.3604 238.074 48.4805C239.058 46.6006 240.043 44.8639 241.028 43.2705C242.013 41.6771 242.505 40.8177 242.505 40.6924C242.505 40.5492 242.317 40.2806 241.941 39.8867C241.583 39.4928 241.404 39.2064 241.404 39.0273C241.404 38.8304 241.771 38.3381 242.505 37.5503C243.257 36.7446 244.161 35.9569 245.217 35.187C246.292 34.3993 247.106 34.0054 247.661 34.0054C248.234 34.0054 248.744 34.256 249.192 34.7573C249.639 35.2586 249.863 35.7152 249.863 36.127C249.863 36.5387 247.733 40.4149 243.472 47.7554C243.418 47.8628 243.266 48.1045 243.015 48.4805C242.782 48.8385 242.594 49.1429 242.451 49.3936C242.326 49.6263 242.174 49.9128 241.995 50.2529C241.637 50.9691 241.458 51.5688 241.458 52.0522C241.458 52.661 241.869 52.9653 242.693 52.9653C243.516 52.9653 244.367 52.6878 245.244 52.1328C246.139 51.5599 246.909 50.9333 247.554 50.2529C249.237 48.4447 250.194 47.5405 250.427 47.5405C250.893 47.5405 251.125 48.3462 251.125 49.9575ZM257.517 38.168C259.254 36.9684 260.955 36.0464 262.62 35.4019C264.285 34.7573 265.726 34.4351 266.943 34.4351C268.161 34.4351 268.94 34.7842 269.28 35.4824C269.978 34.6768 270.846 34.2471 271.885 34.1934C272.189 34.1755 272.565 34.1665 273.013 34.1665C273.46 34.1665 273.738 34.2292 273.845 34.3545C273.953 34.4619 274.051 34.6768 274.141 34.999C274.23 35.3213 274.284 35.5003 274.302 35.5361C274.32 35.5719 274.329 35.6346 274.329 35.7241C274.329 35.7957 274.284 35.8942 274.194 36.0195C274.105 36.127 273.997 36.2344 273.872 36.3418C273.765 36.4492 273.702 36.5119 273.684 36.5298C269.727 42.2052 265.681 48.6774 261.545 55.9463C265.806 52.1686 269.62 49.4562 272.986 47.8091C273.201 47.7017 273.407 47.6479 273.604 47.6479C273.89 47.6479 274.078 47.8359 274.167 48.2119C274.257 48.57 274.302 49.0892 274.302 49.7695C274.302 50.4499 274.257 50.8706 274.167 51.0317C274.096 51.1929 273.684 51.5151 272.932 51.9985C272.18 52.4819 271.204 53.1086 270.005 53.8784C268.805 54.6483 267.534 55.4987 266.191 56.4297C262.969 58.6676 260.319 61.022 258.242 63.4927C255.557 66.7332 253.632 69.3472 252.468 71.3345C252.039 72.1043 251.313 72.4893 250.293 72.4893C248.27 72.4893 247.258 71.5314 247.258 69.6157C247.258 67.6642 248.216 65.668 250.132 63.627C251.564 62.1051 252.88 60.8608 254.08 59.894C255.279 58.9272 255.933 58.3812 256.04 58.2559C257.365 56.2686 259.164 53.4487 261.438 49.7964C259.504 51.8195 257.625 53.4308 255.798 54.6304C253.99 55.8299 252.638 56.4297 251.743 56.4297C249.004 56.4297 247.634 55.257 247.634 52.9116C247.634 51.0496 248.109 49.1698 249.058 47.272C250.007 45.3742 251.224 43.6823 252.71 42.1963C254.196 40.6924 255.798 39.3496 257.517 38.168ZM267.749 37.4697C265.672 37.9173 263.721 38.6603 261.895 39.6987C260.068 40.7192 258.564 41.8203 257.383 43.002C256.201 44.1657 255.181 45.3652 254.321 46.6006C252.71 48.9102 251.904 50.7005 251.904 51.9717C251.904 52.276 251.976 52.4282 252.119 52.4282C252.28 52.4282 252.62 52.2671 253.14 51.9448C253.677 51.6226 254.429 51.0765 255.396 50.3066C256.362 49.5189 257.437 48.5879 258.618 47.5137C261.357 44.9893 264.401 41.6413 267.749 37.4697ZM286.226 51.8643C286.226 52.652 286.763 53.0459 287.837 53.0459C288.41 53.0459 289.126 52.7594 289.985 52.1865C290.863 51.6136 291.65 50.987 292.349 50.3066C294.211 48.4626 295.267 47.5405 295.518 47.5405C295.983 47.5405 296.216 48.2119 296.216 49.5547C296.216 50.8975 295.795 51.8195 294.954 52.3208C292.393 54.6304 290.415 56.0358 289.019 56.5371C288.231 56.8057 287.362 56.931 286.414 56.9131C285.465 56.8952 284.525 56.4834 283.594 55.6777C282.663 54.8721 282.197 53.8963 282.197 52.7505C282.197 51.5868 282.502 50.2708 283.11 48.8027C283.719 47.3346 284.337 46.0814 284.963 45.043C285.608 43.9867 286.396 42.7692 287.327 41.3906C288.258 39.9941 288.75 39.1258 288.804 38.7856L288.75 38.7319C288.159 38.7856 286.691 39.9494 284.346 42.2231C282.018 44.4969 280.094 46.4753 278.572 48.1582C277.05 49.8411 275.233 52.0881 273.12 54.8989C272.529 55.6688 272.046 56.0537 271.67 56.0537C271.294 56.0537 270.793 55.9373 270.166 55.7046C269.521 55.4539 269.128 55.2749 268.984 55.1675C268.841 55.0601 268.77 54.8989 268.77 54.6841C268.77 54.4692 268.832 54.2096 268.958 53.9053C269.083 53.583 269.208 53.3234 269.333 53.1265C269.441 52.9116 269.629 52.5894 269.897 52.1597C270.166 51.73 270.694 50.8258 271.482 49.4473C272.288 48.0508 273.514 45.974 275.161 43.2168C276.808 40.4596 277.793 38.7946 278.115 38.2217C278.796 37.04 279.351 36.1807 279.78 35.6436C280.586 34.623 281.947 34.1128 283.862 34.1128C284.292 34.1128 284.507 34.3813 284.507 34.9185C284.507 35.7599 283.728 37.3444 282.17 39.6719L281.042 41.3638C284.14 37.9263 286.754 35.751 288.884 34.8379C289.923 34.3903 290.854 34.1665 291.677 34.1665C292.519 34.1665 293.181 34.3903 293.665 34.8379C294.166 35.2855 294.417 35.7868 294.417 36.3418C294.417 36.8789 294.229 37.5324 293.853 38.3022C293.477 39.0542 293.092 39.7345 292.698 40.3433C292.322 40.9341 291.82 41.686 291.194 42.5991C290.567 43.5122 290.227 44.0135 290.173 44.103C290.12 44.1746 289.976 44.3895 289.744 44.7476C289.529 45.0877 289.368 45.3384 289.26 45.4995C289.153 45.6606 288.974 45.9471 288.723 46.3589C288.472 46.7528 288.267 47.084 288.105 47.3525C287.962 47.6211 287.774 47.9523 287.542 48.3462C287.327 48.7401 287.148 49.0802 287.004 49.3667C286.879 49.6532 286.745 49.9665 286.602 50.3066C286.351 50.9333 286.226 51.4525 286.226 51.8643Z" fill="#1A1A1A"/>
<defs>
<linearGradient id="paint0_linear_494_2" x1="0" y1="61.7646" x2="293.382" y2="63.9707" gradientUnits="userSpaceOnUse">
<stop stop-color="#F84525"/>
<stop offset="1" stop-color="#FFC300"/>
</linearGradient>
</defs>
</svg>
