<svg width="322" height="93" viewBox="0 0 322 93" fill="none" xmlns="http://www.w3.org/2000/svg">
<g filter="url(#filter0_d_501_2)">
<rect x="2" width="15" height="15" rx="7.5" fill="white"/>
<rect x="62" width="15" height="15" rx="7.5" fill="white"/>
<rect x="122" width="15" height="15" rx="7.5" fill="white"/>
<rect x="182" width="15" height="15" rx="7.5" fill="white"/>
<rect x="242" width="15" height="15" rx="7.5" fill="white"/>
<rect x="302" width="15" height="15" rx="7.5" fill="white"/>
<rect x="2" y="74" width="15" height="15" rx="7.5" fill="white"/>
<rect x="62" y="74" width="15" height="15" rx="7.5" fill="white"/>
<rect x="122" y="74" width="15" height="15" rx="7.5" fill="white"/>
<rect x="182" y="74" width="15" height="15" rx="7.5" fill="white"/>
<rect x="242" y="74" width="15" height="15" rx="7.5" fill="white"/>
<rect x="302" y="74" width="15" height="15" rx="7.5" fill="white"/>
<rect x="2" y="37" width="15" height="15" rx="7.5" fill="white"/>
<rect x="62" y="37" width="15" height="15" rx="7.5" fill="white"/>
<rect x="122" y="37" width="15" height="15" rx="7.5" fill="white"/>
<rect x="182" y="37" width="15" height="15" rx="7.5" fill="white"/>
<rect x="242" y="37" width="15" height="15" rx="7.5" fill="white"/>
<rect x="302" y="37" width="15" height="15" rx="7.5" fill="white"/>
</g>
<defs>
<filter id="filter0_d_501_2" x="0" y="0" width="324" height="93" filterUnits="userSpaceOnUse" color-interpolation-filters="sRGB">
<feFlood flood-opacity="0" result="BackgroundImageFix"/>
<feColorMatrix in="SourceAlpha" type="matrix" values="0 0 0 0 0 0 0 0 0 0 0 0 0 0 0 0 0 0 127 0" result="hardAlpha"/>
<feOffset dy="2"/>
<feGaussianBlur stdDeviation="1"/>
<feComposite in2="hardAlpha" operator="out"/>
<feColorMatrix type="matrix" values="0 0 0 0 0 0 0 0 0 0 0 0 0 0 0 0 0 0 0.15 0"/>
<feBlend mode="normal" in2="BackgroundImageFix" result="effect1_dropShadow_501_2"/>
<feBlend mode="normal" in="SourceGraphic" in2="effect1_dropShadow_501_2" result="shape"/>
</filter>
</defs>
</svg>
